<svg width="91" height="76" viewBox="0 0 91 76" fill="none" xmlns="http://www.w3.org/2000/svg">
<path d="M1.57806 41.6589C-0.375272 39.7099 -0.380516 36.547 1.56634 34.5916L33.9564 2.05905C35.9108 0.0960282 39.0887 0.0960763 41.0431 2.05915L43.872 4.90065C45.8419 6.87936 45.8096 10.088 43.8002 12.0266L25.9998 29.2004L85.5 29.2004C88.2614 29.2004 90.5 31.4389 90.5 34.2004L90.5 41.072C90.5 43.8051 88.3054 46.0318 85.5725 46.0715L27.8596 46.9085L44.0982 63.5579C45.9732 65.4803 45.9948 68.5405 44.1471 70.4892L41.0289 73.778C39.0946 75.8181 35.8591 75.863 33.869 73.8773L1.57806 41.6589Z" fill="#EE8434"/>
</svg>
