<svg width="91" height="75" viewBox="0 0 91 75" fill="none" xmlns="http://www.w3.org/2000/svg">
<path d="M88.9334 33.8743C90.885 35.825 90.8873 38.9879 88.9386 40.9415L56.5185 73.4442C54.5623 75.4054 51.3844 75.4024 49.4319 73.4375L46.6056 70.5934C44.6375 68.6129 44.6728 65.4043 46.6839 63.4675L64.5002 46.3102L5.00002 46.2553C2.2386 46.2528 0.00208969 44.0121 0.00463922 41.2507L0.0109836 34.3791C0.013507 31.6459 2.21019 29.4213 4.94309 29.3841L62.6568 28.6004L46.4335 11.936C44.5603 10.0118 44.5415 6.95161 46.391 5.00462L49.5123 1.71874C51.4485 -0.319558 54.684 -0.361433 56.6723 1.62607L88.9334 33.8743Z" fill="#EE8434"/>
</svg>
