<svg width="90" height="90" viewBox="0 0 90 90" fill="none" xmlns="http://www.w3.org/2000/svg">
<path d="M13 30C13 27.2386 15.2386 25 18 25H73C75.7614 25 78 27.2386 78 30V31C78 33.7614 75.7614 36 73 36H18C15.2386 36 13 33.7614 13 31V30Z" fill="#EE8434"/>
<path d="M13 45C13 42.2386 15.2386 40 18 40H73C75.7614 40 78 42.2386 78 45V46C78 48.7614 75.7614 51 73 51H18C15.2386 51 13 48.7614 13 46V45Z" fill="#EE8434"/>
<path d="M13 60C13 57.2386 15.2386 55 18 55H73C75.7614 55 78 57.2386 78 60V61C78 63.7614 75.7614 66 73 66H18C15.2386 66 13 63.7614 13 61V60Z" fill="#EE8434"/>
</svg>
